<?xml version="1.0" standalone="no"?><!DOCTYPE svg PUBLIC "-//W3C//DTD SVG 1.1//EN" "http://www.w3.org/Graphics/SVG/1.1/DTD/svg11.dtd"><svg t="1490095639578" class="icon" style="" viewBox="0 0 1902 1024" version="1.1" xmlns="http://www.w3.org/2000/svg" p-id="1457" xmlns:xlink="http://www.w3.org/1999/xlink" width="371.484375" height="200"><defs><style type="text/css"></style></defs><path d="M1757.027322 0H145.486339c-80.204007 0-145.486339 65.282332-145.486339 145.486339v731.162113c0 80.204007 65.282332 145.486339 145.486339 145.486339h1609.675774c80.204007 0 145.486339-65.282332 145.486339-145.486339v-731.162113c1.865209-78.338798-63.417122-145.486339-143.62113-145.486339z m-78.338797 650.958106c-9.326047 29.843352-22.382514 55.956284-41.034609 74.608379l61.551913 55.956284-57.821494 59.686703-63.417122-59.686703c-18.652095 11.191257-35.43898 20.517304-50.360656 24.247723-24.247723 7.460838-52.225865 11.191257-83.934426 11.191257-69.01275 0-124.969035-20.517304-169.734062-61.551913-54.091075-48.495446-82.069217-121.238616-82.069217-216.364299 0-96.990893 27.978142-169.734062 83.934427-218.229508 44.765027-41.034608 102.586521-59.686703 169.734062-59.686703 69.01275 0 124.969035 20.517304 171.599271 63.417122 54.091075 48.495446 80.204007 117.508197 80.204007 207.038251-1.865209 48.495446-7.460838 87.664845-18.652094 119.373407z m-199.577414 70.87796c5.595628-1.865209 14.921676-3.730419 24.247723-9.326048l-54.091074-50.360656 55.956284-59.686703 54.091074 50.360656c7.460838-16.786885 14.921676-31.708561 16.786886-44.765027 5.595628-18.652095 7.460838-41.034608 7.460838-67.147541 0-59.686703-11.191257-104.45173-35.43898-136.160292-24.247723-31.708561-59.686703-48.495446-106.31694-48.495446-42.899818 0-78.338798 14.921676-104.451731 46.630237-26.112933 31.708561-39.169399 76.473588-39.169399 139.89071 0 72.743169 18.652095 123.103825 55.956285 154.812386 24.247723 20.517304 52.225865 29.843352 85.799635 29.843352 14.921676 0 27.978142-1.865209 39.169399-5.595628z m-645.362477-443.919855H956.852459l186.520947 525.989071h-119.373406l-33.57377-108.182149H796.444444l-37.304189 108.182149h-115.642987l190.251366-525.989071z m-7.460838 328.276867h134.295082l-65.282332-207.038251-69.01275 207.038251z m-550.236794-326.411657h373.041894v93.260473H384.233151v121.238616h231.285975v91.395264H384.233151v220.094718h-110.047359v-525.989071z" fill="#e5821d" p-id="1458"></path></svg>