<?xml version="1.0" standalone="no"?><!DOCTYPE svg PUBLIC "-//W3C//DTD SVG 1.1//EN" "http://www.w3.org/Graphics/SVG/1.1/DTD/svg11.dtd"><svg t="1490104583504" class="icon" style="" viewBox="0 0 1024 1024" version="1.1" xmlns="http://www.w3.org/2000/svg" p-id="2620" xmlns:xlink="http://www.w3.org/1999/xlink" width="200" height="200"><defs><style type="text/css"></style></defs><path d="M1011.6 349.104l-61.504-51.216c-12.137-10.177-25.849-14.847-36.253-2.937L569.661 659.814l-79.632 92.218 103.015 90.615 37.229-43.735c16.998-19.333 32.315-36.7 39.801-45.278l2.267-2.549a84.82 84.82 0 0 1 2.802-3.16L1013.14 383.05c10.432-11.842 10.588-23.774-1.54-33.946zM450.995 793.236s-70.963 127.432-84.43 175.254c-7.225 25.872-0.685 26.712 22.858 18.847 54.289-18.042 163.3-105.598 163.3-105.598l-101.728-88.503zM763.36 46.025H124.344c-29.261 0-48.05 14.367-48.05 45.047V919.8c0 30.68 18.789 45.04 48.05 45.04h167.457L398.335 723.07 809.4 289.832V93.041c0-30.703-14.716-47.016-46.04-47.016zM462.917 534.656h-260.64c-28.672 0-52-22.982-52-51.232 0-28.251 23.328-51.236 52-51.236h260.64c28.668 0 51.991 22.985 51.991 51.236 0 28.25-23.323 51.232-51.99 51.232z m158.475-156.885H202.277c-28.672 0-52-22.982-52-51.228 0-28.25 23.328-51.233 52-51.233h419.115c28.673 0 52 22.984 52 51.233 0 28.246-23.327 51.228-52 51.228z m62.146-156.883H202.277c-28.672 0-52-22.984-52-51.233s23.328-51.233 52-51.233h481.26c28.673 0 52 22.983 52 51.233s-23.327 51.233-52 51.233zM573.687 964.839h75.044l42.065 1.403 72.565-1.5c31.324 0 46.04-21.922 46.04-52.615V702.015c0-0.001-227.364 258.348-235.714 262.824z" p-id="2621"></path></svg>