<?xml version="1.0" standalone="no"?><!DOCTYPE svg PUBLIC "-//W3C//DTD SVG 1.1//EN" "http://www.w3.org/Graphics/SVG/1.1/DTD/svg11.dtd"><svg class="icon" width="200px" height="200.00px" viewBox="0 0 1024 1024" version="1.1" xmlns="http://www.w3.org/2000/svg"><path fill="#333333" d="M512 298.7c-117.8 0-213.3 95.6-213.3 213.3S394.2 725.3 512 725.3 725.3 629.8 725.3 512 629.8 298.7 512 298.7zM512 85.3C276.3 85.3 85.3 276.3 85.3 512S276.3 938.7 512 938.7 938.7 747.7 938.7 512 747.7 85.3 512 85.3zM512 853.3c-188.6 0-341.3-152.7-341.3-341.3S323.4 170.7 512 170.7 853.3 323.4 853.3 512 700.6 853.3 512 853.3z" /></svg>