<?xml version="1.0" standalone="no"?><!DOCTYPE svg PUBLIC "-//W3C//DTD SVG 1.1//EN" "http://www.w3.org/Graphics/SVG/1.1/DTD/svg11.dtd"><svg class="icon" width="200px" height="200.00px" viewBox="0 0 1024 1024" version="1.1" xmlns="http://www.w3.org/2000/svg"><path fill="#333333" d="M760.910769 1024 263.049846 1024l0-42.377846c21.897846-7.837538 43.992615-14.651077 66.402462-20.48 22.370462-5.907692 46.473846-10.712615 72.349538-14.690462L401.801846 76.051692 212.992 76.051692 133.947077 285.302154 96.689231 285.302154c-2.993231-19.495385-5.474462-41.747692-7.483077-66.599385C87.197538 193.929846 85.504 168.566154 83.968 142.611692c-1.536-25.678769-2.717538-51.2-3.662769-75.972923C79.281231 41.865846 78.769231 19.534769 78.769231 0l866.461538 0c0 19.534769-0.551385 41.550769-1.536 65.851077-1.024 24.379077-2.284308 49.506462-3.820308 75.342769s-2.953846 51.2-4.489846 76.091077c-1.496615 24.851692-3.741538 47.616-6.774154 68.056615l-39.227077 0-78.375385-209.250462-187.313231 0 0 870.439385c25.836308 4.923077 50.018462 9.767385 72.310154 14.690462 22.409846 4.844308 43.992615 11.618462 64.905846 20.48L760.910769 1024z" /></svg>